<svg xmlns="http://www.w3.org/2000/svg" xmlns:xlink="http://www.w3.org/1999/xlink" width="500" zoomAndPan="magnify" viewBox="0 0 375 374.999991" height="500" preserveAspectRatio="xMidYMid meet" version="1.0"><defs><g/><clipPath id="012d603303"><path d="M 5.308594 86.382812 L 153 86.382812 L 153 234 L 5.308594 234 Z M 5.308594 86.382812 " clip-rule="nonzero"/></clipPath></defs><g clip-path="url(#012d603303)"><path fill="#ffffff" d="M 136.964844 86.382812 L 21.109375 86.382812 C 20.070312 86.382812 19.042969 86.484375 18.027344 86.683594 C 17.007812 86.886719 16.019531 87.1875 15.0625 87.585938 C 14.101562 87.980469 13.191406 88.46875 12.332031 89.042969 C 11.46875 89.621094 10.667969 90.277344 9.9375 91.007812 C 9.203125 91.742188 8.546875 92.539062 7.972656 93.402344 C 7.394531 94.265625 6.910156 95.175781 6.511719 96.132812 C 6.113281 97.09375 5.816406 98.082031 5.613281 99.097656 C 5.410156 100.117188 5.308594 101.144531 5.308594 102.179688 L 5.308594 218.039062 C 5.308594 219.078125 5.410156 220.105469 5.613281 221.121094 C 5.816406 222.140625 6.113281 223.128906 6.511719 224.085938 C 6.910156 225.042969 7.394531 225.953125 7.972656 226.816406 C 8.546875 227.679688 9.203125 228.476562 9.9375 229.210938 C 10.667969 229.945312 11.46875 230.601562 12.332031 231.175781 C 13.191406 231.753906 14.101562 232.238281 15.0625 232.636719 C 16.019531 233.03125 17.007812 233.332031 18.027344 233.535156 C 19.042969 233.738281 20.070312 233.839844 21.109375 233.839844 L 136.964844 233.839844 C 138.003906 233.839844 139.03125 233.738281 140.050781 233.535156 C 141.066406 233.332031 142.054688 233.03125 143.011719 232.636719 C 143.972656 232.238281 144.882812 231.753906 145.746094 231.175781 C 146.605469 230.601562 147.40625 229.945312 148.136719 229.210938 C 148.871094 228.476562 149.527344 227.679688 150.101562 226.816406 C 150.679688 225.953125 151.167969 225.042969 151.5625 224.085938 C 151.960938 223.128906 152.261719 222.140625 152.460938 221.121094 C 152.664062 220.105469 152.765625 219.078125 152.765625 218.039062 L 152.765625 102.179688 C 152.765625 101.144531 152.664062 100.117188 152.460938 99.097656 C 152.261719 98.082031 151.960938 97.09375 151.5625 96.132812 C 151.167969 95.175781 150.679688 94.265625 150.101562 93.402344 C 149.527344 92.539062 148.871094 91.742188 148.136719 91.007812 C 147.40625 90.277344 146.605469 89.621094 145.746094 89.042969 C 144.882812 88.46875 143.972656 87.980469 143.011719 87.585938 C 142.054688 87.1875 141.066406 86.886719 140.050781 86.683594 C 139.03125 86.484375 138.003906 86.382812 136.964844 86.382812 Z M 142.234375 218.039062 C 142.234375 218.386719 142.199219 218.726562 142.132812 219.066406 C 142.0625 219.40625 141.964844 219.734375 141.832031 220.054688 C 141.699219 220.375 141.539062 220.679688 141.34375 220.964844 C 141.152344 221.253906 140.933594 221.519531 140.691406 221.761719 C 140.445312 222.007812 140.179688 222.226562 139.890625 222.417969 C 139.605469 222.609375 139.300781 222.773438 138.980469 222.90625 C 138.664062 223.039062 138.332031 223.136719 137.996094 223.203125 C 137.65625 223.273438 137.3125 223.304688 136.964844 223.304688 L 21.109375 223.304688 C 20.761719 223.304688 20.417969 223.273438 20.082031 223.203125 C 19.742188 223.136719 19.410156 223.039062 19.09375 222.90625 C 18.773438 222.773438 18.46875 222.609375 18.183594 222.417969 C 17.894531 222.226562 17.628906 222.007812 17.382812 221.761719 C 17.140625 221.519531 16.921875 221.253906 16.730469 220.964844 C 16.535156 220.679688 16.375 220.375 16.242188 220.054688 C 16.109375 219.734375 16.011719 219.40625 15.941406 219.066406 C 15.875 218.726562 15.839844 218.386719 15.839844 218.039062 L 15.839844 102.179688 C 15.839844 101.835938 15.875 101.492188 15.941406 101.152344 C 16.011719 100.8125 16.109375 100.484375 16.242188 100.164062 C 16.375 99.847656 16.535156 99.542969 16.730469 99.253906 C 16.921875 98.96875 17.140625 98.703125 17.382812 98.457031 C 17.628906 98.210938 17.894531 97.992188 18.183594 97.800781 C 18.46875 97.609375 18.773438 97.449219 19.09375 97.316406 C 19.410156 97.183594 19.742188 97.082031 20.082031 97.015625 C 20.417969 96.949219 20.761719 96.914062 21.109375 96.914062 L 136.964844 96.914062 C 137.3125 96.914062 137.65625 96.949219 137.996094 97.015625 C 138.332031 97.082031 138.664062 97.183594 138.980469 97.316406 C 139.300781 97.449219 139.605469 97.609375 139.890625 97.800781 C 140.179688 97.992188 140.445312 98.210938 140.691406 98.457031 C 140.933594 98.703125 141.152344 98.96875 141.34375 99.253906 C 141.539062 99.542969 141.699219 99.847656 141.832031 100.164062 C 141.964844 100.484375 142.0625 100.8125 142.132812 101.152344 C 142.199219 101.492188 142.234375 101.835938 142.234375 102.179688 Z M 142.234375 218.039062 " fill-opacity="1" fill-rule="nonzero"/></g><path fill="#ffffff" d="M 63.238281 112.714844 L 42.171875 112.714844 C 41.480469 112.714844 40.796875 112.78125 40.117188 112.914062 C 39.441406 113.050781 38.78125 113.25 38.140625 113.515625 C 37.503906 113.78125 36.894531 114.105469 36.320312 114.488281 C 35.746094 114.871094 35.214844 115.308594 34.726562 115.796875 C 34.234375 116.289062 33.800781 116.820312 33.414062 117.394531 C 33.03125 117.96875 32.707031 118.578125 32.441406 119.214844 C 32.175781 119.855469 31.976562 120.511719 31.84375 121.191406 C 31.707031 121.871094 31.640625 122.554688 31.640625 123.246094 L 31.640625 170.644531 C 31.640625 171.335938 31.707031 172.019531 31.84375 172.699219 C 31.976562 173.375 32.175781 174.035156 32.441406 174.671875 C 32.707031 175.3125 33.03125 175.917969 33.414062 176.496094 C 33.800781 177.070312 34.234375 177.601562 34.726562 178.089844 C 35.214844 178.578125 35.746094 179.015625 36.320312 179.398438 C 36.894531 179.785156 37.503906 180.109375 38.140625 180.375 C 38.78125 180.636719 39.441406 180.839844 40.117188 180.972656 C 40.796875 181.109375 41.480469 181.175781 42.171875 181.175781 L 63.238281 181.175781 C 63.929688 181.175781 64.613281 181.109375 65.292969 180.972656 C 65.972656 180.839844 66.628906 180.636719 67.269531 180.375 C 67.90625 180.109375 68.515625 179.785156 69.089844 179.398438 C 69.664062 179.015625 70.195312 178.578125 70.6875 178.089844 C 71.175781 177.601562 71.613281 177.070312 71.996094 176.496094 C 72.378906 175.917969 72.703125 175.3125 72.96875 174.671875 C 73.234375 174.035156 73.433594 173.375 73.570312 172.699219 C 73.703125 172.019531 73.769531 171.335938 73.769531 170.644531 L 73.769531 123.246094 C 73.769531 122.554688 73.703125 121.871094 73.570312 121.191406 C 73.433594 120.511719 73.234375 119.855469 72.96875 119.214844 C 72.703125 118.578125 72.378906 117.96875 71.996094 117.394531 C 71.613281 116.820312 71.175781 116.289062 70.6875 115.796875 C 70.195312 115.308594 69.664062 114.871094 69.089844 114.488281 C 68.515625 114.105469 67.90625 113.78125 67.269531 113.515625 C 66.628906 113.25 65.972656 113.050781 65.292969 112.914062 C 64.613281 112.78125 63.929688 112.714844 63.238281 112.714844 Z M 42.171875 170.644531 L 42.171875 123.246094 L 63.238281 123.246094 L 63.238281 170.644531 Z M 42.171875 170.644531 " fill-opacity="1" fill-rule="nonzero"/><path fill="#ffffff" d="M 115.902344 112.714844 L 94.835938 112.714844 C 94.144531 112.714844 93.460938 112.78125 92.78125 112.914062 C 92.101562 113.050781 91.445312 113.25 90.804688 113.515625 C 90.167969 113.78125 89.558594 114.105469 88.984375 114.488281 C 88.410156 114.871094 87.878906 115.308594 87.386719 115.796875 C 86.898438 116.289062 86.460938 116.820312 86.078125 117.394531 C 85.695312 117.96875 85.371094 118.578125 85.105469 119.214844 C 84.839844 119.855469 84.640625 120.511719 84.507812 121.191406 C 84.371094 121.871094 84.304688 122.554688 84.304688 123.246094 L 84.304688 149.578125 C 84.304688 150.269531 84.371094 150.953125 84.507812 151.632812 C 84.640625 152.3125 84.839844 152.96875 85.105469 153.609375 C 85.371094 154.246094 85.695312 154.855469 86.078125 155.429688 C 86.460938 156.003906 86.898438 156.535156 87.386719 157.023438 C 87.878906 157.515625 88.410156 157.949219 88.984375 158.335938 C 89.558594 158.71875 90.167969 159.042969 90.804688 159.308594 C 91.445312 159.574219 92.101562 159.773438 92.78125 159.90625 C 93.460938 160.042969 94.144531 160.109375 94.835938 160.109375 L 115.902344 160.109375 C 116.59375 160.109375 117.277344 160.042969 117.957031 159.90625 C 118.632812 159.773438 119.292969 159.574219 119.933594 159.308594 C 120.570312 159.042969 121.179688 158.71875 121.753906 158.335938 C 122.328125 157.949219 122.859375 157.515625 123.347656 157.023438 C 123.839844 156.535156 124.273438 156.003906 124.660156 155.429688 C 125.042969 154.855469 125.367188 154.246094 125.632812 153.609375 C 125.898438 152.96875 126.097656 152.3125 126.230469 151.632812 C 126.367188 150.953125 126.433594 150.269531 126.433594 149.578125 L 126.433594 123.246094 C 126.433594 122.554688 126.367188 121.871094 126.230469 121.191406 C 126.097656 120.511719 125.898438 119.855469 125.632812 119.214844 C 125.367188 118.578125 125.042969 117.96875 124.660156 117.394531 C 124.273438 116.820312 123.839844 116.289062 123.347656 115.796875 C 122.859375 115.308594 122.328125 114.871094 121.753906 114.488281 C 121.179688 114.105469 120.570312 113.78125 119.933594 113.515625 C 119.292969 113.25 118.632812 113.050781 117.957031 112.914062 C 117.277344 112.78125 116.59375 112.714844 115.902344 112.714844 Z M 94.835938 149.578125 L 94.835938 123.246094 L 115.902344 123.246094 L 115.902344 149.578125 Z M 94.835938 149.578125 " fill-opacity="1" fill-rule="nonzero"/><g fill="#ffffff" fill-opacity="1"><g transform="translate(159.112933, 182.477284)"><g><path d="M 34.640625 -2.859375 C 34.640625 -1.648438 34.335938 -0.664062 33.734375 0.09375 C 33.128906 0.851562 32.195312 1.234375 30.9375 1.234375 C 29.9375 1.234375 29.007812 0.925781 28.15625 0.3125 C 27.3125 -0.289062 26.53125 -1.035156 25.8125 -1.921875 C 25.101562 -2.804688 24.476562 -3.75 23.9375 -4.75 C 23.394531 -5.75 22.945312 -6.617188 22.59375 -7.359375 C 21.6875 -9.179688 20.785156 -11.003906 19.890625 -12.828125 C 19.003906 -14.648438 18.128906 -16.492188 17.265625 -18.359375 L 13.34375 -15.953125 C 13.394531 -14.691406 13.332031 -13.429688 13.15625 -12.171875 C 12.976562 -10.921875 12.847656 -9.664062 12.765625 -8.40625 C 12.679688 -7.53125 12.539062 -6.582031 12.34375 -5.5625 C 12.144531 -4.539062 11.828125 -3.585938 11.390625 -2.703125 C 10.960938 -1.816406 10.378906 -1.066406 9.640625 -0.453125 C 8.898438 0.148438 7.988281 0.453125 6.90625 0.453125 C 5.90625 0.453125 5.078125 0.25 4.421875 -0.15625 C 3.773438 -0.570312 3.242188 -1.101562 2.828125 -1.75 C 2.421875 -2.40625 2.128906 -3.144531 1.953125 -3.96875 C 1.773438 -4.789062 1.6875 -5.640625 1.6875 -6.515625 L 1.6875 -7.03125 C 1.6875 -9.59375 1.828125 -12.164062 2.109375 -14.75 C 2.398438 -17.332031 2.585938 -19.925781 2.671875 -22.53125 C 2.753906 -25.957031 2.859375 -29.382812 2.984375 -32.8125 C 3.117188 -36.25 3.296875 -39.679688 3.515625 -43.109375 C 3.554688 -43.890625 3.6875 -44.648438 3.90625 -45.390625 C 4.125 -46.128906 4.445312 -46.789062 4.875 -47.375 C 5.3125 -47.957031 5.84375 -48.421875 6.46875 -48.765625 C 7.101562 -49.117188 7.859375 -49.296875 8.734375 -49.296875 C 10.078125 -49.296875 11.082031 -48.816406 11.75 -47.859375 C 12.425781 -46.910156 12.894531 -45.757812 13.15625 -44.40625 C 13.414062 -43.0625 13.535156 -41.671875 13.515625 -40.234375 C 13.492188 -38.804688 13.484375 -37.617188 13.484375 -36.671875 C 13.484375 -33.929688 13.414062 -31.191406 13.28125 -28.453125 C 14.539062 -29.492188 15.765625 -30.6875 16.953125 -32.03125 C 18.148438 -33.382812 19.207031 -34.753906 20.125 -36.140625 C 20.6875 -36.960938 21.335938 -38.101562 22.078125 -39.5625 C 22.816406 -41.019531 23.617188 -42.429688 24.484375 -43.796875 C 25.359375 -45.160156 26.316406 -46.351562 27.359375 -47.375 C 28.398438 -48.394531 29.503906 -48.90625 30.671875 -48.90625 C 31.929688 -48.90625 32.851562 -48.546875 33.4375 -47.828125 C 34.03125 -47.117188 34.328125 -46.175781 34.328125 -45 C 34.328125 -43.257812 34.050781 -41.476562 33.5 -39.65625 C 32.957031 -37.832031 32.226562 -36.039062 31.3125 -34.28125 C 30.40625 -32.53125 29.375 -30.859375 28.21875 -29.265625 C 27.070312 -27.679688 25.914062 -26.304688 24.75 -25.140625 C 25.96875 -23.097656 27.117188 -21.046875 28.203125 -18.984375 C 29.285156 -16.921875 30.367188 -14.847656 31.453125 -12.765625 C 31.847656 -12.066406 32.226562 -11.304688 32.59375 -10.484375 C 32.957031 -9.660156 33.289062 -8.8125 33.59375 -7.9375 C 33.90625 -7.070312 34.15625 -6.203125 34.34375 -5.328125 C 34.539062 -4.460938 34.640625 -3.640625 34.640625 -2.859375 Z M 34.640625 -2.859375 "/></g></g></g><g fill="#ffffff" fill-opacity="1"><g transform="translate(194.144288, 182.477284)"><g><path d="M 29.625 -9.1875 C 29.625 -8.40625 29.59375 -7.382812 29.53125 -6.125 C 29.46875 -4.863281 29.285156 -3.632812 28.984375 -2.4375 C 28.679688 -1.25 28.203125 -0.222656 27.546875 0.640625 C 26.898438 1.515625 25.988281 1.953125 24.8125 1.953125 C 23.207031 1.953125 21.96875 1.429688 21.09375 0.390625 C 20.226562 -0.648438 19.816406 -1.953125 19.859375 -3.515625 C 18.472656 -2.296875 16.898438 -1.335938 15.140625 -0.640625 C 13.378906 0.046875 11.585938 0.390625 9.765625 0.390625 C 8.503906 0.390625 7.3125 0.0859375 6.1875 -0.515625 C 5.0625 -1.128906 4.0625 -1.910156 3.1875 -2.859375 C 2.320312 -3.816406 1.628906 -4.890625 1.109375 -6.078125 C 0.585938 -7.273438 0.328125 -8.460938 0.328125 -9.640625 C 0.328125 -11.722656 0.96875 -13.546875 2.25 -15.109375 C 3.53125 -16.671875 5.101562 -18.003906 6.96875 -19.109375 C 8.832031 -20.222656 10.816406 -21.101562 12.921875 -21.75 C 15.023438 -22.40625 16.90625 -22.835938 18.5625 -23.046875 C 18.5625 -23.265625 18.570312 -23.460938 18.59375 -23.640625 C 18.613281 -23.816406 18.625 -24.007812 18.625 -24.21875 C 18.625 -25.570312 18.253906 -26.660156 17.515625 -27.484375 C 16.773438 -28.304688 15.734375 -28.71875 14.390625 -28.71875 C 13.304688 -28.71875 12.375 -28.53125 11.59375 -28.15625 C 10.8125 -27.789062 10.070312 -27.378906 9.375 -26.921875 C 8.6875 -26.472656 7.992188 -26.0625 7.296875 -25.6875 C 6.597656 -25.320312 5.816406 -25.140625 4.953125 -25.140625 C 3.992188 -25.140625 3.175781 -25.441406 2.5 -26.046875 C 1.832031 -26.660156 1.5 -27.441406 1.5 -28.390625 C 1.5 -29.828125 1.921875 -31.128906 2.765625 -32.296875 C 3.609375 -33.472656 4.671875 -34.460938 5.953125 -35.265625 C 7.234375 -36.066406 8.625 -36.695312 10.125 -37.15625 C 11.625 -37.613281 13.003906 -37.84375 14.265625 -37.84375 C 15.429688 -37.84375 16.597656 -37.695312 17.765625 -37.40625 C 18.941406 -37.125 20.050781 -36.691406 21.09375 -36.109375 C 22.132812 -35.523438 23.078125 -34.804688 23.921875 -33.953125 C 24.773438 -33.109375 25.460938 -32.125 25.984375 -31 C 26.765625 -29.394531 27.394531 -27.691406 27.875 -25.890625 C 28.351562 -24.085938 28.722656 -22.238281 28.984375 -20.34375 C 29.242188 -18.457031 29.414062 -16.570312 29.5 -14.6875 C 29.582031 -12.800781 29.625 -10.96875 29.625 -9.1875 Z M 19.21875 -11.265625 L 19.015625 -15.6875 C 18.929688 -15.6875 18.84375 -15.695312 18.75 -15.71875 C 18.664062 -15.75 18.582031 -15.765625 18.5 -15.765625 C 17.9375 -15.765625 17.226562 -15.617188 16.375 -15.328125 C 15.53125 -15.046875 14.71875 -14.65625 13.9375 -14.15625 C 13.15625 -13.664062 12.492188 -13.113281 11.953125 -12.5 C 11.410156 -11.894531 11.140625 -11.265625 11.140625 -10.609375 C 11.140625 -10.003906 11.351562 -9.59375 11.78125 -9.375 C 12.21875 -9.15625 12.71875 -9.046875 13.28125 -9.046875 C 14.238281 -9.046875 15.257812 -9.296875 16.34375 -9.796875 C 17.425781 -10.296875 18.382812 -10.785156 19.21875 -11.265625 Z M 19.21875 -11.265625 "/></g></g></g><g fill="#ffffff" fill-opacity="1"><g transform="translate(225.724599, 182.477284)"><g><path d="M 20.453125 1.828125 C 19.710938 1.828125 19.125 1.488281 18.6875 0.8125 C 18.257812 0.132812 17.9375 -0.632812 17.71875 -1.5 C 17.5 -2.363281 17.351562 -3.238281 17.28125 -4.125 C 17.21875 -5.019531 17.1875 -5.707031 17.1875 -6.1875 C 17.1875 -7.488281 17.265625 -8.789062 17.421875 -10.09375 C 17.578125 -11.394531 17.75 -12.695312 17.9375 -14 C 18.132812 -15.300781 18.304688 -16.601562 18.453125 -17.90625 C 18.609375 -19.207031 18.6875 -20.507812 18.6875 -21.8125 C 18.6875 -22.332031 18.664062 -22.894531 18.625 -23.5 C 18.582031 -24.113281 18.484375 -24.691406 18.328125 -25.234375 C 18.179688 -25.773438 17.929688 -26.21875 17.578125 -26.5625 C 17.234375 -26.914062 16.78125 -27.09375 16.21875 -27.09375 C 15.820312 -27.09375 15.382812 -26.773438 14.90625 -26.140625 C 14.4375 -25.515625 13.992188 -24.800781 13.578125 -24 C 13.160156 -23.195312 12.8125 -22.394531 12.53125 -21.59375 C 12.25 -20.789062 12.109375 -20.191406 12.109375 -19.796875 C 12.109375 -18.835938 12.117188 -17.867188 12.140625 -16.890625 C 12.160156 -15.921875 12.171875 -14.9375 12.171875 -13.9375 L 12.171875 -10.15625 C 12.128906 -9.375 12.066406 -8.570312 11.984375 -7.75 C 11.898438 -6.925781 11.769531 -6.125 11.59375 -5.34375 C 11.457031 -4.5625 11.257812 -3.8125 11 -3.09375 C 10.738281 -2.375 10.398438 -1.742188 9.984375 -1.203125 C 9.578125 -0.660156 9.09375 -0.21875 8.53125 0.125 C 7.96875 0.476562 7.296875 0.65625 6.515625 0.65625 C 5.640625 0.65625 4.921875 0.375 4.359375 -0.1875 C 3.796875 -0.757812 3.335938 -1.488281 2.984375 -2.375 C 2.640625 -3.269531 2.390625 -4.269531 2.234375 -5.375 C 2.085938 -6.476562 1.984375 -7.5625 1.921875 -8.625 C 1.859375 -9.6875 1.835938 -10.660156 1.859375 -11.546875 C 1.878906 -12.441406 1.890625 -13.148438 1.890625 -13.671875 L 1.890625 -16.734375 C 1.890625 -18.390625 1.851562 -20.019531 1.78125 -21.625 C 1.71875 -23.226562 1.6875 -24.832031 1.6875 -26.4375 C 1.6875 -27.3125 1.695312 -28.421875 1.71875 -29.765625 C 1.75 -31.109375 1.914062 -32.421875 2.21875 -33.703125 C 2.519531 -34.984375 3.015625 -36.078125 3.703125 -36.984375 C 4.398438 -37.898438 5.421875 -38.359375 6.765625 -38.359375 C 7.378906 -38.359375 7.925781 -38.160156 8.40625 -37.765625 C 8.882812 -37.378906 9.304688 -36.90625 9.671875 -36.34375 C 10.035156 -35.78125 10.335938 -35.171875 10.578125 -34.515625 C 10.816406 -33.867188 11.003906 -33.304688 11.140625 -32.828125 C 11.566406 -33.429688 12.070312 -34.015625 12.65625 -34.578125 C 13.25 -35.140625 13.914062 -35.640625 14.65625 -36.078125 C 15.394531 -36.515625 16.21875 -36.863281 17.125 -37.125 C 18.039062 -37.382812 19.082031 -37.515625 20.25 -37.515625 C 22.46875 -37.515625 24.191406 -36.984375 25.421875 -35.921875 C 26.660156 -34.859375 27.570312 -33.53125 28.15625 -31.9375 C 28.75 -30.351562 29.109375 -28.648438 29.234375 -26.828125 C 29.367188 -25.003906 29.4375 -23.351562 29.4375 -21.875 C 29.4375 -21.144531 29.367188 -20.050781 29.234375 -18.59375 C 29.109375 -17.132812 28.90625 -15.523438 28.625 -13.765625 C 28.34375 -12.015625 27.960938 -10.210938 27.484375 -8.359375 C 27.003906 -6.515625 26.4375 -4.832031 25.78125 -3.3125 C 25.132812 -1.800781 24.363281 -0.566406 23.46875 0.390625 C 22.582031 1.347656 21.578125 1.828125 20.453125 1.828125 Z M 20.453125 1.828125 "/></g></g></g><g fill="#ffffff" fill-opacity="1"><g transform="translate(256.849112, 182.477284)"><g><path d="M 30.734375 -38.484375 C 30.734375 -35.492188 29.992188 -32.769531 28.515625 -30.3125 C 27.046875 -27.863281 25.070312 -25.8125 22.59375 -24.15625 C 23.894531 -23.894531 25.023438 -23.445312 25.984375 -22.8125 C 26.941406 -22.1875 27.734375 -21.414062 28.359375 -20.5 C 28.992188 -19.59375 29.472656 -18.5625 29.796875 -17.40625 C 30.117188 -16.257812 30.28125 -15.0625 30.28125 -13.8125 C 30.28125 -11.332031 29.703125 -9.171875 28.546875 -7.328125 C 27.398438 -5.484375 25.914062 -3.960938 24.09375 -2.765625 C 22.269531 -1.578125 20.238281 -0.6875 18 -0.09375 C 15.769531 0.488281 13.546875 0.78125 11.328125 0.78125 C 10.117188 0.78125 8.90625 0.691406 7.6875 0.515625 C 6.46875 0.347656 5.316406 0.046875 4.234375 -0.390625 C 3.835938 -0.523438 3.507812 -1.054688 3.25 -1.984375 C 2.988281 -2.921875 2.78125 -4.0625 2.625 -5.40625 C 2.476562 -6.75 2.363281 -8.203125 2.28125 -9.765625 C 2.195312 -11.328125 2.128906 -12.820312 2.078125 -14.25 C 2.035156 -15.6875 2.015625 -16.945312 2.015625 -18.03125 C 2.015625 -19.125 2.015625 -19.882812 2.015625 -20.3125 C 2.015625 -21.832031 2.015625 -23.363281 2.015625 -24.90625 C 2.015625 -26.445312 2.0625 -27.976562 2.15625 -29.5 C 2.15625 -29.894531 2.164062 -30.503906 2.1875 -31.328125 C 2.207031 -32.148438 2.226562 -33.070312 2.25 -34.09375 C 2.269531 -35.113281 2.3125 -36.1875 2.375 -37.3125 C 2.4375 -38.445312 2.519531 -39.5 2.625 -40.46875 C 2.738281 -41.445312 2.894531 -42.285156 3.09375 -42.984375 C 3.289062 -43.679688 3.519531 -44.113281 3.78125 -44.28125 C 4.78125 -44.9375 5.882812 -45.554688 7.09375 -46.140625 C 8.3125 -46.722656 9.570312 -47.234375 10.875 -47.671875 C 12.175781 -48.109375 13.476562 -48.457031 14.78125 -48.71875 C 16.082031 -48.976562 17.320312 -49.109375 18.5 -49.109375 C 20.101562 -49.109375 21.65625 -48.878906 23.15625 -48.421875 C 24.65625 -47.960938 25.957031 -47.273438 27.0625 -46.359375 C 28.164062 -45.453125 29.050781 -44.335938 29.71875 -43.015625 C 30.394531 -41.691406 30.734375 -40.179688 30.734375 -38.484375 Z M 19.921875 -35.03125 C 19.921875 -35.769531 19.691406 -36.3125 19.234375 -36.65625 C 18.785156 -37.007812 18.191406 -37.1875 17.453125 -37.1875 C 16.847656 -37.1875 16.207031 -37.054688 15.53125 -36.796875 C 14.851562 -36.535156 14.28125 -36.1875 13.8125 -35.75 C 13.675781 -35.625 13.550781 -35.253906 13.4375 -34.640625 C 13.332031 -34.035156 13.25 -33.351562 13.1875 -32.59375 C 13.125 -31.832031 13.082031 -31.113281 13.0625 -30.4375 C 13.039062 -29.769531 13.03125 -29.328125 13.03125 -29.109375 C 13.03125 -29.023438 13.03125 -28.882812 13.03125 -28.6875 C 13.03125 -28.488281 13.039062 -28.28125 13.0625 -28.0625 C 13.082031 -27.851562 13.113281 -27.660156 13.15625 -27.484375 C 13.195312 -27.304688 13.257812 -27.21875 13.34375 -27.21875 C 14.082031 -27.21875 14.84375 -27.488281 15.625 -28.03125 C 16.40625 -28.570312 17.109375 -29.242188 17.734375 -30.046875 C 18.367188 -30.859375 18.890625 -31.71875 19.296875 -32.625 C 19.710938 -33.539062 19.921875 -34.34375 19.921875 -35.03125 Z M 19.671875 -16.21875 C 19.671875 -16.957031 19.410156 -17.476562 18.890625 -17.78125 C 18.367188 -18.082031 17.78125 -18.234375 17.125 -18.234375 C 16.519531 -18.234375 15.878906 -18.09375 15.203125 -17.8125 C 14.535156 -17.53125 13.984375 -17.191406 13.546875 -16.796875 C 13.410156 -16.710938 13.3125 -16.492188 13.25 -16.140625 C 13.1875 -15.796875 13.144531 -15.414062 13.125 -15 C 13.101562 -14.59375 13.082031 -14.203125 13.0625 -13.828125 C 13.039062 -13.460938 13.03125 -13.21875 13.03125 -13.09375 C 13.03125 -13 13.03125 -12.820312 13.03125 -12.5625 C 13.03125 -12.300781 13.039062 -12.03125 13.0625 -11.75 C 13.082031 -11.46875 13.125 -11.207031 13.1875 -10.96875 C 13.25 -10.726562 13.328125 -10.609375 13.421875 -10.609375 C 14.023438 -10.609375 14.695312 -10.78125 15.4375 -11.125 C 16.175781 -11.476562 16.859375 -11.914062 17.484375 -12.4375 C 18.117188 -12.957031 18.640625 -13.550781 19.046875 -14.21875 C 19.460938 -14.894531 19.671875 -15.5625 19.671875 -16.21875 Z M 19.671875 -16.21875 "/></g></g></g><g fill="#ffffff" fill-opacity="1"><g transform="translate(288.559652, 182.477284)"><g><path d="M 29.625 -9.1875 C 29.625 -8.40625 29.59375 -7.382812 29.53125 -6.125 C 29.46875 -4.863281 29.285156 -3.632812 28.984375 -2.4375 C 28.679688 -1.25 28.203125 -0.222656 27.546875 0.640625 C 26.898438 1.515625 25.988281 1.953125 24.8125 1.953125 C 23.207031 1.953125 21.96875 1.429688 21.09375 0.390625 C 20.226562 -0.648438 19.816406 -1.953125 19.859375 -3.515625 C 18.472656 -2.296875 16.898438 -1.335938 15.140625 -0.640625 C 13.378906 0.046875 11.585938 0.390625 9.765625 0.390625 C 8.503906 0.390625 7.3125 0.0859375 6.1875 -0.515625 C 5.0625 -1.128906 4.0625 -1.910156 3.1875 -2.859375 C 2.320312 -3.816406 1.628906 -4.890625 1.109375 -6.078125 C 0.585938 -7.273438 0.328125 -8.460938 0.328125 -9.640625 C 0.328125 -11.722656 0.96875 -13.546875 2.25 -15.109375 C 3.53125 -16.671875 5.101562 -18.003906 6.96875 -19.109375 C 8.832031 -20.222656 10.816406 -21.101562 12.921875 -21.75 C 15.023438 -22.40625 16.90625 -22.835938 18.5625 -23.046875 C 18.5625 -23.265625 18.570312 -23.460938 18.59375 -23.640625 C 18.613281 -23.816406 18.625 -24.007812 18.625 -24.21875 C 18.625 -25.570312 18.253906 -26.660156 17.515625 -27.484375 C 16.773438 -28.304688 15.734375 -28.71875 14.390625 -28.71875 C 13.304688 -28.71875 12.375 -28.53125 11.59375 -28.15625 C 10.8125 -27.789062 10.070312 -27.378906 9.375 -26.921875 C 8.6875 -26.472656 7.992188 -26.0625 7.296875 -25.6875 C 6.597656 -25.320312 5.816406 -25.140625 4.953125 -25.140625 C 3.992188 -25.140625 3.175781 -25.441406 2.5 -26.046875 C 1.832031 -26.660156 1.5 -27.441406 1.5 -28.390625 C 1.5 -29.828125 1.921875 -31.128906 2.765625 -32.296875 C 3.609375 -33.472656 4.671875 -34.460938 5.953125 -35.265625 C 7.234375 -36.066406 8.625 -36.695312 10.125 -37.15625 C 11.625 -37.613281 13.003906 -37.84375 14.265625 -37.84375 C 15.429688 -37.84375 16.597656 -37.695312 17.765625 -37.40625 C 18.941406 -37.125 20.050781 -36.691406 21.09375 -36.109375 C 22.132812 -35.523438 23.078125 -34.804688 23.921875 -33.953125 C 24.773438 -33.109375 25.460938 -32.125 25.984375 -31 C 26.765625 -29.394531 27.394531 -27.691406 27.875 -25.890625 C 28.351562 -24.085938 28.722656 -22.238281 28.984375 -20.34375 C 29.242188 -18.457031 29.414062 -16.570312 29.5 -14.6875 C 29.582031 -12.800781 29.625 -10.96875 29.625 -9.1875 Z M 19.21875 -11.265625 L 19.015625 -15.6875 C 18.929688 -15.6875 18.84375 -15.695312 18.75 -15.71875 C 18.664062 -15.75 18.582031 -15.765625 18.5 -15.765625 C 17.9375 -15.765625 17.226562 -15.617188 16.375 -15.328125 C 15.53125 -15.046875 14.71875 -14.65625 13.9375 -14.15625 C 13.15625 -13.664062 12.492188 -13.113281 11.953125 -12.5 C 11.410156 -11.894531 11.140625 -11.265625 11.140625 -10.609375 C 11.140625 -10.003906 11.351562 -9.59375 11.78125 -9.375 C 12.21875 -9.15625 12.71875 -9.046875 13.28125 -9.046875 C 14.238281 -9.046875 15.257812 -9.296875 16.34375 -9.796875 C 17.425781 -10.296875 18.382812 -10.785156 19.21875 -11.265625 Z M 19.21875 -11.265625 "/></g></g></g><g fill="#ffffff" fill-opacity="1"><g transform="translate(320.139963, 182.477284)"><g><path d="M 20.453125 1.828125 C 19.710938 1.828125 19.125 1.488281 18.6875 0.8125 C 18.257812 0.132812 17.9375 -0.632812 17.71875 -1.5 C 17.5 -2.363281 17.351562 -3.238281 17.28125 -4.125 C 17.21875 -5.019531 17.1875 -5.707031 17.1875 -6.1875 C 17.1875 -7.488281 17.265625 -8.789062 17.421875 -10.09375 C 17.578125 -11.394531 17.75 -12.695312 17.9375 -14 C 18.132812 -15.300781 18.304688 -16.601562 18.453125 -17.90625 C 18.609375 -19.207031 18.6875 -20.507812 18.6875 -21.8125 C 18.6875 -22.332031 18.664062 -22.894531 18.625 -23.5 C 18.582031 -24.113281 18.484375 -24.691406 18.328125 -25.234375 C 18.179688 -25.773438 17.929688 -26.21875 17.578125 -26.5625 C 17.234375 -26.914062 16.78125 -27.09375 16.21875 -27.09375 C 15.820312 -27.09375 15.382812 -26.773438 14.90625 -26.140625 C 14.4375 -25.515625 13.992188 -24.800781 13.578125 -24 C 13.160156 -23.195312 12.8125 -22.394531 12.53125 -21.59375 C 12.25 -20.789062 12.109375 -20.191406 12.109375 -19.796875 C 12.109375 -18.835938 12.117188 -17.867188 12.140625 -16.890625 C 12.160156 -15.921875 12.171875 -14.9375 12.171875 -13.9375 L 12.171875 -10.15625 C 12.128906 -9.375 12.066406 -8.570312 11.984375 -7.75 C 11.898438 -6.925781 11.769531 -6.125 11.59375 -5.34375 C 11.457031 -4.5625 11.257812 -3.8125 11 -3.09375 C 10.738281 -2.375 10.398438 -1.742188 9.984375 -1.203125 C 9.578125 -0.660156 9.09375 -0.21875 8.53125 0.125 C 7.96875 0.476562 7.296875 0.65625 6.515625 0.65625 C 5.640625 0.65625 4.921875 0.375 4.359375 -0.1875 C 3.796875 -0.757812 3.335938 -1.488281 2.984375 -2.375 C 2.640625 -3.269531 2.390625 -4.269531 2.234375 -5.375 C 2.085938 -6.476562 1.984375 -7.5625 1.921875 -8.625 C 1.859375 -9.6875 1.835938 -10.660156 1.859375 -11.546875 C 1.878906 -12.441406 1.890625 -13.148438 1.890625 -13.671875 L 1.890625 -16.734375 C 1.890625 -18.390625 1.851562 -20.019531 1.78125 -21.625 C 1.71875 -23.226562 1.6875 -24.832031 1.6875 -26.4375 C 1.6875 -27.3125 1.695312 -28.421875 1.71875 -29.765625 C 1.75 -31.109375 1.914062 -32.421875 2.21875 -33.703125 C 2.519531 -34.984375 3.015625 -36.078125 3.703125 -36.984375 C 4.398438 -37.898438 5.421875 -38.359375 6.765625 -38.359375 C 7.378906 -38.359375 7.925781 -38.160156 8.40625 -37.765625 C 8.882812 -37.378906 9.304688 -36.90625 9.671875 -36.34375 C 10.035156 -35.78125 10.335938 -35.171875 10.578125 -34.515625 C 10.816406 -33.867188 11.003906 -33.304688 11.140625 -32.828125 C 11.566406 -33.429688 12.070312 -34.015625 12.65625 -34.578125 C 13.25 -35.140625 13.914062 -35.640625 14.65625 -36.078125 C 15.394531 -36.515625 16.21875 -36.863281 17.125 -37.125 C 18.039062 -37.382812 19.082031 -37.515625 20.25 -37.515625 C 22.46875 -37.515625 24.191406 -36.984375 25.421875 -35.921875 C 26.660156 -34.859375 27.570312 -33.53125 28.15625 -31.9375 C 28.75 -30.351562 29.109375 -28.648438 29.234375 -26.828125 C 29.367188 -25.003906 29.4375 -23.351562 29.4375 -21.875 C 29.4375 -21.144531 29.367188 -20.050781 29.234375 -18.59375 C 29.109375 -17.132812 28.90625 -15.523438 28.625 -13.765625 C 28.34375 -12.015625 27.960938 -10.210938 27.484375 -8.359375 C 27.003906 -6.515625 26.4375 -4.832031 25.78125 -3.3125 C 25.132812 -1.800781 24.363281 -0.566406 23.46875 0.390625 C 22.582031 1.347656 21.578125 1.828125 20.453125 1.828125 Z M 20.453125 1.828125 "/></g></g></g></svg>